<?xml version="1.0" encoding="utf-8" ?>
<svg baseProfile="full" height="110" version="1.1" width="189" xmlns="http://www.w3.org/2000/svg" xmlns:ev="http://www.w3.org/2001/xml-events" xmlns:xlink="http://www.w3.org/1999/xlink"><defs>
  <style>
    polygon {
      stroke: #BBBBBB; /* Chiziq rangi (to'q kulrang) */
      opacity: 1;     /* To'liq ko'rinadigan */
    }
  </style>
</defs><rect fill="none" height="110" width="189" x="0" y="0" /><polygon fill="none" opacity="0.15" points="17.320508075688775,9.999999999999998 1.2246467991473533e-15,20.0 -17.32050807568877,10.000000000000007 -17.320508075688778,-9.999999999999995 -3.673940397442059e-15,-20.0 17.320508075688767,-10.000000000000009" stroke="#dcdcdc" stroke-width="2" /><polygon fill="none" opacity="0.15" points="47.32050807568878,27.32050807568877 30.0,37.32050807568877 12.679491924311229,27.320508075688778 12.679491924311222,7.320508075688776 29.999999999999996,-2.679491924311229 47.320508075688764,7.320508075688762" stroke="#dcdcdc" stroke-width="2" /><polygon fill="none" opacity="0.15" points="77.32050807568878,9.999999999999998 60.0,20.0 42.67949192431123,10.000000000000007 42.67949192431122,-9.999999999999995 59.99999999999999,-20.0 77.32050807568876,-10.000000000000009" stroke="#dcdcdc" stroke-width="2" /><polygon fill="none" opacity="0.15" points="107.32050807568878,27.32050807568877 90.0,37.32050807568877 72.67949192431124,27.320508075688778 72.67949192431122,7.320508075688776 90.0,-2.679491924311229 107.32050807568876,7.320508075688762" stroke="#dcdcdc" stroke-width="2" /><polygon fill="none" opacity="0.15" points="137.32050807568876,9.999999999999998 120.0,20.0 102.67949192431124,10.000000000000007 102.67949192431122,-9.999999999999995 120.0,-20.0 137.32050807568876,-10.000000000000009" stroke="#dcdcdc" stroke-width="2" /><polygon fill="none" opacity="0.15" points="167.32050807568876,27.32050807568877 150.0,37.32050807568877 132.67949192431124,27.320508075688778 132.6794919243112,7.320508075688776 150.0,-2.679491924311229 167.32050807568876,7.320508075688762" stroke="#dcdcdc" stroke-width="2" /><polygon fill="none" opacity="0.15" points="197.32050807568876,9.999999999999998 180.0,20.0 162.67949192431124,10.000000000000007 162.6794919243112,-9.999999999999995 180.0,-20.0 197.32050807568876,-10.000000000000009" stroke="#dcdcdc" stroke-width="2" /><polygon fill="none" opacity="0.15" points="227.32050807568876,27.32050807568877 210.0,37.32050807568877 192.67949192431124,27.320508075688778 192.6794919243112,7.320508075688776 210.0,-2.679491924311229 227.32050807568876,7.320508075688762" stroke="#dcdcdc" stroke-width="2" /><polygon fill="none" opacity="0.15" points="257.3205080756888,9.999999999999998 240.0,20.0 222.67949192431124,10.000000000000007 222.6794919243112,-9.999999999999995 240.0,-20.0 257.3205080756888,-10.000000000000009" stroke="#dcdcdc" stroke-width="2" /><polygon fill="none" opacity="0.15" points="17.320508075688775,44.64101615137754 1.2246467991473533e-15,54.64101615137754 -17.32050807568877,44.64101615137755 -17.320508075688778,24.64101615137755 -3.673940397442059e-15,14.641016151377542 17.320508075688767,24.641016151377535" stroke="#dcdcdc" stroke-width="2" /><polygon fill="none" opacity="0.15" points="47.32050807568878,61.96152422706631 30.0,71.96152422706632 12.679491924311229,61.96152422706632 12.679491924311222,41.96152422706632 29.999999999999996,31.961524227066313 47.320508075688764,41.961524227066306" stroke="#dcdcdc" stroke-width="2" /><polygon fill="none" opacity="0.15" points="77.32050807568878,44.64101615137754 60.0,54.64101615137754 42.67949192431123,44.64101615137755 42.67949192431122,24.64101615137755 59.99999999999999,14.641016151377542 77.32050807568876,24.641016151377535" stroke="#dcdcdc" stroke-width="2" /><polygon fill="none" opacity="0.15" points="107.32050807568878,61.96152422706631 90.0,71.96152422706632 72.67949192431124,61.96152422706632 72.67949192431122,41.96152422706632 90.0,31.961524227066313 107.32050807568876,41.961524227066306" stroke="#dcdcdc" stroke-width="2" /><polygon fill="none" opacity="0.15" points="137.32050807568876,44.64101615137754 120.0,54.64101615137754 102.67949192431124,44.64101615137755 102.67949192431122,24.64101615137755 120.0,14.641016151377542 137.32050807568876,24.641016151377535" stroke="#dcdcdc" stroke-width="2" /><polygon fill="none" opacity="0.15" points="167.32050807568876,61.96152422706631 150.0,71.96152422706632 132.67949192431124,61.96152422706632 132.6794919243112,41.96152422706632 150.0,31.961524227066313 167.32050807568876,41.961524227066306" stroke="#dcdcdc" stroke-width="2" /><polygon fill="none" opacity="0.15" points="197.32050807568876,44.64101615137754 180.0,54.64101615137754 162.67949192431124,44.64101615137755 162.6794919243112,24.64101615137755 180.0,14.641016151377542 197.32050807568876,24.641016151377535" stroke="#dcdcdc" stroke-width="2" /><polygon fill="none" opacity="0.15" points="227.32050807568876,61.96152422706631 210.0,71.96152422706632 192.67949192431124,61.96152422706632 192.6794919243112,41.96152422706632 210.0,31.961524227066313 227.32050807568876,41.961524227066306" stroke="#dcdcdc" stroke-width="2" /><polygon fill="none" opacity="0.15" points="257.3205080756888,44.64101615137754 240.0,54.64101615137754 222.67949192431124,44.64101615137755 222.6794919243112,24.64101615137755 240.0,14.641016151377542 257.3205080756888,24.641016151377535" stroke="#dcdcdc" stroke-width="2" /><polygon fill="none" opacity="0.15" points="17.320508075688775,79.28203230275508 1.2246467991473533e-15,89.28203230275508 -17.32050807568877,79.28203230275508 -17.320508075688778,59.28203230275509 -3.673940397442059e-15,49.282032302755084 17.320508075688767,59.28203230275508" stroke="#dcdcdc" stroke-width="2" /><polygon fill="none" opacity="0.15" points="47.32050807568878,96.60254037844385 30.0,106.60254037844385 12.679491924311229,96.60254037844385 12.679491924311222,76.60254037844385 29.999999999999996,66.60254037844385 47.320508075688764,76.60254037844383" stroke="#dcdcdc" stroke-width="2" /><polygon fill="none" opacity="0.15" points="77.32050807568878,79.28203230275508 60.0,89.28203230275508 42.67949192431123,79.28203230275508 42.67949192431122,59.28203230275509 59.99999999999999,49.282032302755084 77.32050807568876,59.28203230275508" stroke="#dcdcdc" stroke-width="2" /><polygon fill="none" opacity="0.15" points="107.32050807568878,96.60254037844385 90.0,106.60254037844385 72.67949192431124,96.60254037844385 72.67949192431122,76.60254037844385 90.0,66.60254037844385 107.32050807568876,76.60254037844383" stroke="#dcdcdc" stroke-width="2" /><polygon fill="none" opacity="0.15" points="137.32050807568876,79.28203230275508 120.0,89.28203230275508 102.67949192431124,79.28203230275508 102.67949192431122,59.28203230275509 120.0,49.282032302755084 137.32050807568876,59.28203230275508" stroke="#dcdcdc" stroke-width="2" /><polygon fill="none" opacity="0.15" points="167.32050807568876,96.60254037844385 150.0,106.60254037844385 132.67949192431124,96.60254037844385 132.6794919243112,76.60254037844385 150.0,66.60254037844385 167.32050807568876,76.60254037844383" stroke="#dcdcdc" stroke-width="2" /><polygon fill="none" opacity="0.15" points="197.32050807568876,79.28203230275508 180.0,89.28203230275508 162.67949192431124,79.28203230275508 162.6794919243112,59.28203230275509 180.0,49.282032302755084 197.32050807568876,59.28203230275508" stroke="#dcdcdc" stroke-width="2" /><polygon fill="none" opacity="0.15" points="227.32050807568876,96.60254037844385 210.0,106.60254037844385 192.67949192431124,96.60254037844385 192.6794919243112,76.60254037844385 210.0,66.60254037844385 227.32050807568876,76.60254037844383" stroke="#dcdcdc" stroke-width="2" /><polygon fill="none" opacity="0.15" points="257.3205080756888,79.28203230275508 240.0,89.28203230275508 222.67949192431124,79.28203230275508 222.6794919243112,59.28203230275509 240.0,49.282032302755084 257.3205080756888,59.28203230275508" stroke="#dcdcdc" stroke-width="2" /><polygon fill="none" opacity="0.15" points="17.320508075688775,113.92304845413263 1.2246467991473533e-15,123.92304845413263 -17.32050807568877,113.92304845413264 -17.320508075688778,93.92304845413263 -3.673940397442059e-15,83.92304845413263 17.320508075688767,93.92304845413261" stroke="#dcdcdc" stroke-width="2" /><polygon fill="none" opacity="0.15" points="47.32050807568878,131.2435565298214 30.0,141.2435565298214 12.679491924311229,131.2435565298214 12.679491924311222,111.2435565298214 29.999999999999996,101.2435565298214 47.320508075688764,111.24355652982139" stroke="#dcdcdc" stroke-width="2" /><polygon fill="none" opacity="0.15" points="77.32050807568878,113.92304845413263 60.0,123.92304845413263 42.67949192431123,113.92304845413264 42.67949192431122,93.92304845413263 59.99999999999999,83.92304845413263 77.32050807568876,93.92304845413261" stroke="#dcdcdc" stroke-width="2" /><polygon fill="none" opacity="0.15" points="107.32050807568878,131.2435565298214 90.0,141.2435565298214 72.67949192431124,131.2435565298214 72.67949192431122,111.2435565298214 90.0,101.2435565298214 107.32050807568876,111.24355652982139" stroke="#dcdcdc" stroke-width="2" /><polygon fill="none" opacity="0.15" points="137.32050807568876,113.92304845413263 120.0,123.92304845413263 102.67949192431124,113.92304845413264 102.67949192431122,93.92304845413263 120.0,83.92304845413263 137.32050807568876,93.92304845413261" stroke="#dcdcdc" stroke-width="2" /><polygon fill="none" opacity="0.15" points="167.32050807568876,131.2435565298214 150.0,141.2435565298214 132.67949192431124,131.2435565298214 132.6794919243112,111.2435565298214 150.0,101.2435565298214 167.32050807568876,111.24355652982139" stroke="#dcdcdc" stroke-width="2" /><polygon fill="none" opacity="0.15" points="197.32050807568876,113.92304845413263 180.0,123.92304845413263 162.67949192431124,113.92304845413264 162.6794919243112,93.92304845413263 180.0,83.92304845413263 197.32050807568876,93.92304845413261" stroke="#dcdcdc" stroke-width="2" /><polygon fill="none" opacity="0.15" points="227.32050807568876,131.2435565298214 210.0,141.2435565298214 192.67949192431124,131.2435565298214 192.6794919243112,111.2435565298214 210.0,101.2435565298214 227.32050807568876,111.24355652982139" stroke="#dcdcdc" stroke-width="2" /><polygon fill="none" opacity="0.15" points="257.3205080756888,113.92304845413263 240.0,123.92304845413263 222.67949192431124,113.92304845413264 222.6794919243112,93.92304845413263 240.0,83.92304845413263 257.3205080756888,93.92304845413261" stroke="#dcdcdc" stroke-width="2" /><polygon fill="none" opacity="0.15" points="17.320508075688775,148.56406460551017 1.2246467991473533e-15,158.56406460551017 -17.32050807568877,148.56406460551017 -17.320508075688778,128.56406460551017 -3.673940397442059e-15,118.56406460551017 17.320508075688767,128.56406460551017" stroke="#dcdcdc" stroke-width="2" /><polygon fill="none" opacity="0.15" points="47.32050807568878,165.88457268119893 30.0,175.88457268119893 12.679491924311229,165.88457268119893 12.679491924311222,145.88457268119893 29.999999999999996,135.88457268119893 47.320508075688764,145.88457268119893" stroke="#dcdcdc" stroke-width="2" /><polygon fill="none" opacity="0.15" points="77.32050807568878,148.56406460551017 60.0,158.56406460551017 42.67949192431123,148.56406460551017 42.67949192431122,128.56406460551017 59.99999999999999,118.56406460551017 77.32050807568876,128.56406460551017" stroke="#dcdcdc" stroke-width="2" /><polygon fill="none" opacity="0.15" points="107.32050807568878,165.88457268119893 90.0,175.88457268119893 72.67949192431124,165.88457268119893 72.67949192431122,145.88457268119893 90.0,135.88457268119893 107.32050807568876,145.88457268119893" stroke="#dcdcdc" stroke-width="2" /><polygon fill="none" opacity="0.15" points="137.32050807568876,148.56406460551017 120.0,158.56406460551017 102.67949192431124,148.56406460551017 102.67949192431122,128.56406460551017 120.0,118.56406460551017 137.32050807568876,128.56406460551017" stroke="#dcdcdc" stroke-width="2" /><polygon fill="none" opacity="0.15" points="167.32050807568876,165.88457268119893 150.0,175.88457268119893 132.67949192431124,165.88457268119893 132.6794919243112,145.88457268119893 150.0,135.88457268119893 167.32050807568876,145.88457268119893" stroke="#dcdcdc" stroke-width="2" /><polygon fill="none" opacity="0.15" points="197.32050807568876,148.56406460551017 180.0,158.56406460551017 162.67949192431124,148.56406460551017 162.6794919243112,128.56406460551017 180.0,118.56406460551017 197.32050807568876,128.56406460551017" stroke="#dcdcdc" stroke-width="2" /><polygon fill="none" opacity="0.15" points="227.32050807568876,165.88457268119893 210.0,175.88457268119893 192.67949192431124,165.88457268119893 192.6794919243112,145.88457268119893 210.0,135.88457268119893 227.32050807568876,145.88457268119893" stroke="#dcdcdc" stroke-width="2" /><polygon fill="none" opacity="0.15" points="257.3205080756888,148.56406460551017 240.0,158.56406460551017 222.67949192431124,148.56406460551017 222.6794919243112,128.56406460551017 240.0,118.56406460551017 257.3205080756888,128.56406460551017" stroke="#dcdcdc" stroke-width="2" /><polygon fill="none" opacity="0.15" points="17.320508075688775,183.2050807568877 1.2246467991473533e-15,193.2050807568877 -17.32050807568877,183.2050807568877 -17.320508075688778,163.2050807568877 -3.673940397442059e-15,153.2050807568877 17.320508075688767,163.2050807568877" stroke="#dcdcdc" stroke-width="2" /><polygon fill="none" opacity="0.15" points="47.32050807568878,200.52558883257646 30.0,210.52558883257646 12.679491924311229,200.52558883257646 12.679491924311222,180.52558883257646 29.999999999999996,170.52558883257646 47.320508075688764,180.52558883257646" stroke="#dcdcdc" stroke-width="2" /><polygon fill="none" opacity="0.15" points="77.32050807568878,183.2050807568877 60.0,193.2050807568877 42.67949192431123,183.2050807568877 42.67949192431122,163.2050807568877 59.99999999999999,153.2050807568877 77.32050807568876,163.2050807568877" stroke="#dcdcdc" stroke-width="2" /><polygon fill="none" opacity="0.15" points="107.32050807568878,200.52558883257646 90.0,210.52558883257646 72.67949192431124,200.52558883257646 72.67949192431122,180.52558883257646 90.0,170.52558883257646 107.32050807568876,180.52558883257646" stroke="#dcdcdc" stroke-width="2" /><polygon fill="none" opacity="0.15" points="137.32050807568876,183.2050807568877 120.0,193.2050807568877 102.67949192431124,183.2050807568877 102.67949192431122,163.2050807568877 120.0,153.2050807568877 137.32050807568876,163.2050807568877" stroke="#dcdcdc" stroke-width="2" /><polygon fill="none" opacity="0.15" points="167.32050807568876,200.52558883257646 150.0,210.52558883257646 132.67949192431124,200.52558883257646 132.6794919243112,180.52558883257646 150.0,170.52558883257646 167.32050807568876,180.52558883257646" stroke="#dcdcdc" stroke-width="2" /><polygon fill="none" opacity="0.15" points="197.32050807568876,183.2050807568877 180.0,193.2050807568877 162.67949192431124,183.2050807568877 162.6794919243112,163.2050807568877 180.0,153.2050807568877 197.32050807568876,163.2050807568877" stroke="#dcdcdc" stroke-width="2" /><polygon fill="none" opacity="0.15" points="227.32050807568876,200.52558883257646 210.0,210.52558883257646 192.67949192431124,200.52558883257646 192.6794919243112,180.52558883257646 210.0,170.52558883257646 227.32050807568876,180.52558883257646" stroke="#dcdcdc" stroke-width="2" /><polygon fill="none" opacity="0.15" points="257.3205080756888,183.2050807568877 240.0,193.2050807568877 222.67949192431124,183.2050807568877 222.6794919243112,163.2050807568877 240.0,153.2050807568877 257.3205080756888,163.2050807568877" stroke="#dcdcdc" stroke-width="2" /><polygon fill="none" opacity="0.15" points="17.320508075688775,217.84609690826525 1.2246467991473533e-15,227.84609690826525 -17.32050807568877,217.84609690826525 -17.320508075688778,197.84609690826525 -3.673940397442059e-15,187.84609690826525 17.320508075688767,197.84609690826525" stroke="#dcdcdc" stroke-width="2" /><polygon fill="none" opacity="0.15" points="47.32050807568878,235.16660498395402 30.0,245.16660498395402 12.679491924311229,235.16660498395402 12.679491924311222,215.16660498395402 29.999999999999996,205.16660498395402 47.320508075688764,215.16660498395402" stroke="#dcdcdc" stroke-width="2" /><polygon fill="none" opacity="0.15" points="77.32050807568878,217.84609690826525 60.0,227.84609690826525 42.67949192431123,217.84609690826525 42.67949192431122,197.84609690826525 59.99999999999999,187.84609690826525 77.32050807568876,197.84609690826525" stroke="#dcdcdc" stroke-width="2" /><polygon fill="none" opacity="0.15" points="107.32050807568878,235.16660498395402 90.0,245.16660498395402 72.67949192431124,235.16660498395402 72.67949192431122,215.16660498395402 90.0,205.16660498395402 107.32050807568876,215.16660498395402" stroke="#dcdcdc" stroke-width="2" /><polygon fill="none" opacity="0.15" points="137.32050807568876,217.84609690826525 120.0,227.84609690826525 102.67949192431124,217.84609690826525 102.67949192431122,197.84609690826525 120.0,187.84609690826525 137.32050807568876,197.84609690826525" stroke="#dcdcdc" stroke-width="2" /><polygon fill="none" opacity="0.15" points="167.32050807568876,235.16660498395402 150.0,245.16660498395402 132.67949192431124,235.16660498395402 132.6794919243112,215.16660498395402 150.0,205.16660498395402 167.32050807568876,215.16660498395402" stroke="#dcdcdc" stroke-width="2" /><polygon fill="none" opacity="0.15" points="197.32050807568876,217.84609690826525 180.0,227.84609690826525 162.67949192431124,217.84609690826525 162.6794919243112,197.84609690826525 180.0,187.84609690826525 197.32050807568876,197.84609690826525" stroke="#dcdcdc" stroke-width="2" /><polygon fill="none" opacity="0.15" points="227.32050807568876,235.16660498395402 210.0,245.16660498395402 192.67949192431124,235.16660498395402 192.6794919243112,215.16660498395402 210.0,205.16660498395402 227.32050807568876,215.16660498395402" stroke="#dcdcdc" stroke-width="2" /><polygon fill="none" opacity="0.15" points="257.3205080756888,217.84609690826525 240.0,227.84609690826525 222.67949192431124,217.84609690826525 222.6794919243112,197.84609690826525 240.0,187.84609690826525 257.3205080756888,197.84609690826525" stroke="#dcdcdc" stroke-width="2" /><polygon fill="none" opacity="0.15" points="17.320508075688775,252.4871130596428 1.2246467991473533e-15,262.4871130596428 -17.32050807568877,252.4871130596428 -17.320508075688778,232.4871130596428 -3.673940397442059e-15,222.4871130596428 17.320508075688767,232.4871130596428" stroke="#dcdcdc" stroke-width="2" /><polygon fill="none" opacity="0.15" points="47.32050807568878,269.8076211353316 30.0,279.8076211353316 12.679491924311229,269.8076211353316 12.679491924311222,249.8076211353316 29.999999999999996,239.8076211353316 47.320508075688764,249.8076211353316" stroke="#dcdcdc" stroke-width="2" /><polygon fill="none" opacity="0.15" points="77.32050807568878,252.4871130596428 60.0,262.4871130596428 42.67949192431123,252.4871130596428 42.67949192431122,232.4871130596428 59.99999999999999,222.4871130596428 77.32050807568876,232.4871130596428" stroke="#dcdcdc" stroke-width="2" /><polygon fill="none" opacity="0.15" points="107.32050807568878,269.8076211353316 90.0,279.8076211353316 72.67949192431124,269.8076211353316 72.67949192431122,249.8076211353316 90.0,239.8076211353316 107.32050807568876,249.8076211353316" stroke="#dcdcdc" stroke-width="2" /><polygon fill="none" opacity="0.15" points="137.32050807568876,252.4871130596428 120.0,262.4871130596428 102.67949192431124,252.4871130596428 102.67949192431122,232.4871130596428 120.0,222.4871130596428 137.32050807568876,232.4871130596428" stroke="#dcdcdc" stroke-width="2" /><polygon fill="none" opacity="0.15" points="167.32050807568876,269.8076211353316 150.0,279.8076211353316 132.67949192431124,269.8076211353316 132.6794919243112,249.8076211353316 150.0,239.8076211353316 167.32050807568876,249.8076211353316" stroke="#dcdcdc" stroke-width="2" /><polygon fill="none" opacity="0.15" points="197.32050807568876,252.4871130596428 180.0,262.4871130596428 162.67949192431124,252.4871130596428 162.6794919243112,232.4871130596428 180.0,222.4871130596428 197.32050807568876,232.4871130596428" stroke="#dcdcdc" stroke-width="2" /><polygon fill="none" opacity="0.15" points="227.32050807568876,269.8076211353316 210.0,279.8076211353316 192.67949192431124,269.8076211353316 192.6794919243112,249.8076211353316 210.0,239.8076211353316 227.32050807568876,249.8076211353316" stroke="#dcdcdc" stroke-width="2" /><polygon fill="none" opacity="0.15" points="257.3205080756888,252.4871130596428 240.0,262.4871130596428 222.67949192431124,252.4871130596428 222.6794919243112,232.4871130596428 240.0,222.4871130596428 257.3205080756888,232.4871130596428" stroke="#dcdcdc" stroke-width="2" /><polygon fill="none" opacity="0.15" points="17.320508075688775,287.12812921102034 1.2246467991473533e-15,297.12812921102034 -17.32050807568877,287.12812921102034 -17.320508075688778,267.12812921102034 -3.673940397442059e-15,257.12812921102034 17.320508075688767,267.12812921102034" stroke="#dcdcdc" stroke-width="2" /><polygon fill="none" opacity="0.15" points="47.32050807568878,304.44863728670913 30.0,314.44863728670913 12.679491924311229,304.44863728670913 12.679491924311222,284.44863728670913 29.999999999999996,274.44863728670913 47.320508075688764,284.44863728670913" stroke="#dcdcdc" stroke-width="2" /><polygon fill="none" opacity="0.15" points="77.32050807568878,287.12812921102034 60.0,297.12812921102034 42.67949192431123,287.12812921102034 42.67949192431122,267.12812921102034 59.99999999999999,257.12812921102034 77.32050807568876,267.12812921102034" stroke="#dcdcdc" stroke-width="2" /><polygon fill="none" opacity="0.15" points="107.32050807568878,304.44863728670913 90.0,314.44863728670913 72.67949192431124,304.44863728670913 72.67949192431122,284.44863728670913 90.0,274.44863728670913 107.32050807568876,284.44863728670913" stroke="#dcdcdc" stroke-width="2" /><polygon fill="none" opacity="0.15" points="137.32050807568876,287.12812921102034 120.0,297.12812921102034 102.67949192431124,287.12812921102034 102.67949192431122,267.12812921102034 120.0,257.12812921102034 137.32050807568876,267.12812921102034" stroke="#dcdcdc" stroke-width="2" /><polygon fill="none" opacity="0.15" points="167.32050807568876,304.44863728670913 150.0,314.44863728670913 132.67949192431124,304.44863728670913 132.6794919243112,284.44863728670913 150.0,274.44863728670913 167.32050807568876,284.44863728670913" stroke="#dcdcdc" stroke-width="2" /><polygon fill="none" opacity="0.15" points="197.32050807568876,287.12812921102034 180.0,297.12812921102034 162.67949192431124,287.12812921102034 162.6794919243112,267.12812921102034 180.0,257.12812921102034 197.32050807568876,267.12812921102034" stroke="#dcdcdc" stroke-width="2" /><polygon fill="none" opacity="0.15" points="227.32050807568876,304.44863728670913 210.0,314.44863728670913 192.67949192431124,304.44863728670913 192.6794919243112,284.44863728670913 210.0,274.44863728670913 227.32050807568876,284.44863728670913" stroke="#dcdcdc" stroke-width="2" /><polygon fill="none" opacity="0.15" points="257.3205080756888,287.12812921102034 240.0,297.12812921102034 222.67949192431124,287.12812921102034 222.6794919243112,267.12812921102034 240.0,257.12812921102034 257.3205080756888,267.12812921102034" stroke="#dcdcdc" stroke-width="2" /></svg>